<svg width="22" height="26" viewBox="0 0 22 26" fill="none" xmlns="http://www.w3.org/2000/svg">
<path fill-rule="evenodd" clip-rule="evenodd" d="M21.676 10C21.676 12.8097 20.4473 15.3487 18.469 17.1653C18.3837 17.546 18.2194 17.9217 17.9657 18.2727L13.5037 24.4475C12.3062 26.1047 9.83808 26.1047 8.64056 24.4475L4.17859 18.2727C3.92494 17.9217 3.76054 17.5459 3.67532 17.1652C1.69702 15.3487 0.468338 12.8096 0.468338 10C0.468338 4.47715 5.21583 0 11.0722 0C16.9285 0 21.676 4.47715 21.676 10ZM11.0722 13.4375C12.9023 13.4375 14.3859 12.0384 14.3859 10.3125C14.3859 8.58661 12.9023 7.1875 11.0722 7.1875C9.24206 7.1875 7.75847 8.58661 7.75847 10.3125C7.75847 12.0384 9.24206 13.4375 11.0722 13.4375Z" fill="white"/>
</svg>
