<svg width="22" height="20" viewBox="0 0 22 20" fill="none" xmlns="http://www.w3.org/2000/svg">
<path d="M4.13654 0C3.66426 0 3.28139 0.361061 3.28139 0.806452V3.06452C3.28139 3.50991 3.66426 3.87097 4.13654 3.87097C4.60883 3.87097 4.99169 3.50991 4.99169 3.06452V0.806451C4.99169 0.361061 4.60883 0 4.13654 0Z" fill="white"/>
<path d="M17.8189 0C17.3466 0 16.9638 0.361061 16.9638 0.806452V3.06452C16.9638 3.50991 17.3466 3.87097 17.8189 3.87097C18.2912 3.87097 18.674 3.50991 18.674 3.06452V0.806451C18.674 0.361061 18.2912 0 17.8189 0Z" fill="white"/>
<path d="M15.9376 11.2903H13.5432V13.2258H15.9376V11.2903Z" fill="white"/>
<path d="M9.78051 11.2903H12.517V13.2258H9.78051V11.2903Z" fill="white"/>
<path d="M8.75434 11.2903H6.35992V13.2258H8.75434V11.2903Z" fill="white"/>
<path d="M2.93933 11.2903H5.33374V13.2258H2.93933V11.2903Z" fill="white"/>
<path d="M19.3582 11.2903H16.9638V13.2258H19.3582V11.2903Z" fill="white"/>
<path d="M13.5432 7.74191H15.9376V9.6774H13.5432V7.74191Z" fill="white"/>
<path d="M12.517 7.74191H9.78051V9.6774H12.517V7.74191Z" fill="white"/>
<path d="M16.9638 7.74191H19.3582V9.6774H16.9638V7.74191Z" fill="white"/>
<path d="M15.9376 14.8387H13.5432V16.7742H15.9376V14.8387Z" fill="white"/>
<path d="M9.78051 14.8387H12.517V16.7742H9.78051V14.8387Z" fill="white"/>
<path d="M8.75434 14.8387H6.35992V16.7742H8.75434V14.8387Z" fill="white"/>
<path d="M2.93933 14.8387H5.33374V16.7742H2.93933V14.8387Z" fill="white"/>
<path d="M19.3582 14.8387H16.9638V16.7742H19.3582V14.8387Z" fill="white"/>
<path fill-rule="evenodd" clip-rule="evenodd" d="M5.33375 3.06912V2.25809H16.6217V3.06912C16.6217 3.69013 17.1604 4.19355 17.8189 4.19355C18.4774 4.19355 19.0161 3.69013 19.0161 3.06912V2.25809H19.3679C20.6849 2.25809 21.7526 3.26493 21.7526 4.50694V17.4286C21.7526 18.6706 20.6849 19.6774 19.3679 19.6774H2.92956C1.61256 19.6774 0.544922 18.6706 0.544922 17.4286V4.50694C0.544922 3.26493 1.61256 2.25809 2.92956 2.25809H2.93933V3.06912C2.93933 3.69013 3.47804 4.19355 4.13654 4.19355C4.79504 4.19355 5.33375 3.69013 5.33375 3.06912ZM20.3843 6.12907H1.91316V17.2627C1.91316 17.8837 2.44698 18.3871 3.10548 18.3871H19.192C19.8505 18.3871 20.3843 17.8837 20.3843 17.2627V6.12907Z" fill="white"/>
</svg>
