<svg xmlns="http://www.w3.org/2000/svg" viewBox="0 0 463 285">
    <g fill="#FFFFFF" fill-rule="evenodd">
        <path d="M34.695 240.016c-.336-.896-1.51-4.59-1.902-5.987-.56 2.294-1.287 4.7-1.735 5.987l-4.532 12.086h12.646l-4.477-12.086zm5.987 16.562H24.847l-4.756 12.366h-5.09l15.61-40.12h4.532l15.555 40.12h-5.203l-4.813-12.366zM74.98 254.955v-.896c0-7.44-2.016-11.582-8.674-11.582-5.314 0-7.944 4.533-7.944 11.638 0 7.162 2.63 11.303 8 11.303 6.324 0 8.618-3.469 8.618-10.463m-21.71-.95c0-10.297 4.923-15.612 12.364-15.612 4.645 0 7.444 1.958 9.288 4.42h.337c-.111-.952-.337-3.3-.337-4.42V228.32l4.925-1.902v42.525h-3.971l-.729-4.028h-.224c-1.79 2.573-4.643 4.588-9.343 4.588-7.443 0-12.31-5.204-12.31-15.499M84.041 238.952h5.26l6.379 17.682c.894 2.462 2.07 6.098 2.405 7.945h.224c.392-1.847 1.678-5.54 2.518-7.945l6.379-17.682h5.26l-11.415 29.991h-5.652l-11.358-29.99zM119.625 250.983H134.9c-.055-5.092-2.294-8.562-7.273-8.562-4.7 0-7.498 3.19-8.002 8.562m20.424.95v2.966h-20.535c.168 6.77 3.581 10.408 9.567 10.408 2.91 0 5.876-.56 8.226-1.455l1.398 3.693c-3.077 1.343-5.763 1.959-9.848 1.959-8.56 0-14.435-5.316-14.435-15.332 0-9.848 5.315-15.78 13.261-15.78 7.666 0 12.366 5.372 12.366 13.542M171.828 249.415v19.528h-4.868v-19.192c0-4.812-2.126-7.218-6.715-7.218-6.658 0-8.784 3.861-8.784 10.855v15.555h-4.924v-29.99h3.973l.726 4.084h.28c1.958-3.134 5.652-4.644 9.457-4.644 7.162 0 10.855 3.3 10.855 11.022M191.856 264.747l1.343 3.524c-1.064.672-3.19 1.232-5.484 1.232-4.7 0-8.785-2.015-8.785-9.288v-26.299l4.924-1.847v6.883h8.674v3.805h-8.674v17.345c0 3.637 1.96 5.373 4.7 5.373 1.12 0 2.63-.392 3.302-.728M197.618 268.943h4.924v-29.991h-4.924v29.991zm5.371-38.104c0 2.126-1.343 3.133-2.853 3.133-1.623 0-2.91-1.007-2.91-3.133 0-2.183 1.287-3.134 2.91-3.134 1.51 0 2.853.951 2.853 3.134zM218.487 269.503c-4.197 0-7.106-.672-9.4-1.902l1.454-3.805c1.96.839 5.204 1.734 8.057 1.734 4.981 0 7.107-1.734 7.107-4.421 0-2.237-1.51-3.581-7.386-5.818-5.819-2.238-9.289-4.029-9.289-8.953 0-5.092 4.532-7.945 11.247-7.945 3.637 0 6.771.783 9.568 2.014l-1.51 3.973c-2.575-1.119-5.484-1.959-8.394-1.959-4.028 0-6.21 1.399-6.21 3.638 0 2.517 1.958 3.524 7.721 5.707 5.708 2.126 9.01 4.085 9.01 8.896 0 5.82-4.646 8.841-11.975 8.841M248.308 264.747l1.344 3.524c-1.064.672-3.19 1.232-5.485 1.232-4.7 0-8.784-2.015-8.784-9.288v-26.299l4.924-1.847v6.883h8.673v3.805h-8.673v17.345c0 3.637 1.958 5.373 4.7 5.373 1.119 0 2.63-.392 3.3-.728M254.014 230.559c.503 0 .839-.28.839-.728 0-.447-.28-.67-.84-.67h-.503v1.398h.504zm-1.287-2.07h1.287c1.119 0 1.622.448 1.622 1.342 0 .617-.392.953-.783 1.12l1.175 1.959h-.895l-1.008-1.735h-.615v1.735h-.783v-4.421zm4.532 2.238c0-1.734-1.287-3.19-3.134-3.19-1.845 0-3.132 1.343-3.132 3.19 0 1.734 1.287 3.134 3.132 3.134 1.736 0 3.134-1.287 3.134-3.134zm-6.826 0c0-2.182 1.51-3.75 3.692-3.75 2.07 0 3.694 1.568 3.694 3.75 0 2.127-1.567 3.693-3.694 3.693-2.181 0-3.692-1.566-3.692-3.693zM278.519 248.968c0 9.904 4.588 16.115 13.765 16.115 3.469 0 7.72-.784 10.296-2.014l1.454 3.86c-4.476 2.07-7.442 2.574-12.478 2.574-12.254 0-18.352-8.001-18.352-20.591 0-12.086 6.826-20.48 19.192-20.48 4.084 0 7.665.673 10.686 2.183l-1.677 4.42c-2.463-1.12-5.485-2.181-9.066-2.181-8.56 0-13.82 6.098-13.82 16.114M313.71 238.897c0 1.454-.11 3.02-.278 4.196h.335c1.903-3.077 5.484-4.644 9.344-4.644 7.275 0 10.967 3.302 10.967 10.967v19.528h-4.868V249.75c0-4.811-2.126-7.217-6.714-7.217-6.715 0-8.785 3.917-8.785 10.91v15.5h-4.924v-40.68l4.924-1.846v12.479zM367.313 268.943h-4.03l-.728-3.973h-.223c-1.957 3.134-5.651 4.533-9.512 4.533-7.219 0-10.91-3.302-10.91-10.912v-19.639h4.978v19.303c0 4.813 2.127 7.163 6.659 7.163 6.66 0 8.84-3.86 8.84-10.855v-15.61h4.925v29.99zM393.216 238.729l-.615 4.532c-.951-.223-2.24-.391-3.246-.391-4.644 0-8.73 4.028-8.73 10.07v16.004h-4.923v-29.991h4.029l.559 5.483h.225c1.902-3.302 4.979-6.043 9.176-6.043 1.119 0 2.518.11 3.525.336M394.894 254.115c0-11.078 5.986-15.723 14.044-15.723 3.02 0 6.155.728 7.945 1.623l-1.566 4.084c-1.791-.67-4.42-1.398-6.49-1.398-5.988 0-8.841 3.86-8.841 11.358 0 7.218 2.909 11.191 8.56 11.191 2.518 0 4.7-.56 6.659-1.454l1.51 3.916c-1.678 1.063-4.7 1.791-8.113 1.791-8.001 0-13.708-4.756-13.708-15.388M427.232 238.897c0 1.454-.112 3.02-.28 4.196h.336c1.902-3.077 5.483-4.644 9.344-4.644 7.274 0 10.967 3.302 10.967 10.967v19.528h-4.868V249.75c0-4.811-2.126-7.217-6.715-7.217-6.714 0-8.784 3.917-8.784 10.91v15.5h-4.924v-40.68l4.924-1.846v12.479z"/>
        <g>
            <path d="M91.735 209.503c-4.477 0-8.449-.672-10.968-1.902l1.568-4.141c1.734.783 5.371 1.679 9.624 1.679 5.93 0 9.008-2.462 9.008-6.435 0-3.917-2.182-5.596-9.4-8.225-6.827-2.462-10.296-5.652-10.296-11.863 0-6.322 5.204-10.183 12.758-10.183 4.364 0 8.001.895 11.022 2.238l-1.622 4.309c-2.798-1.175-6.043-2.126-9.512-2.126-4.98 0-7.554 2.349-7.554 5.818 0 4.029 2.238 5.651 8.728 8.058 7.051 2.629 10.912 5.259 10.912 11.526 0 7.106-5.539 11.247-14.268 11.247M116.352 190.983h15.275c-.056-5.092-2.294-8.562-7.274-8.562-4.7 0-7.497 3.19-8 8.562m20.422.95v2.966H116.24c.169 6.77 3.582 10.408 9.569 10.408 2.909 0 5.875-.56 8.226-1.455l1.398 3.693c-3.077 1.343-5.764 1.959-9.848 1.959-8.561 0-14.436-5.316-14.436-15.332 0-9.848 5.315-15.78 13.26-15.78 7.666 0 12.367 5.372 12.367 13.542M137.39 178.952h5.26l6.379 17.682c.894 2.462 2.07 6.098 2.405 7.945h.224c.392-1.847 1.678-5.54 2.518-7.945l6.379-17.682h5.26L154.4 208.943h-5.652l-11.358-29.99zM172.974 190.983h15.275c-.055-5.092-2.294-8.562-7.273-8.562-4.7 0-7.498 3.19-8.002 8.562m20.424.95v2.966h-20.535c.168 6.77 3.58 10.408 9.567 10.408 2.91 0 5.876-.56 8.226-1.455l1.398 3.693c-3.077 1.343-5.763 1.959-9.848 1.959-8.56 0-14.435-5.316-14.435-15.332 0-9.848 5.315-15.78 13.26-15.78 7.667 0 12.367 5.372 12.367 13.542M225.177 189.415v19.528h-4.868v-19.192c0-4.812-2.126-7.218-6.715-7.218-6.658 0-8.784 3.861-8.784 10.855v15.555h-4.924v-29.99h3.973l.726 4.084h.28c1.958-3.134 5.652-4.644 9.457-4.644 7.162 0 10.855 3.3 10.855 11.022M245.205 204.747l1.343 3.524c-1.064.672-3.19 1.232-5.484 1.232-4.7 0-8.785-2.015-8.785-9.288v-26.299l4.924-1.847v6.883h8.674v3.805h-8.674v17.345c0 3.637 1.96 5.373 4.7 5.373 1.12 0 2.63-.392 3.302-.728M255.89 178.897c0 1.454-.111 3.02-.28 4.196h.337c1.902-3.077 5.483-4.644 9.344-4.644 7.274 0 10.967 3.302 10.967 10.967v19.528h-4.868V189.75c0-4.811-2.126-7.217-6.715-7.217-6.714 0-8.784 3.917-8.784 10.91v15.5h-4.924v-40.68l4.924-1.846v12.479zM281.066 191.766h13.541l1.68 4.364h-13.542zM321.911 194.955v-.896c0-7.44-2.015-11.582-8.673-11.582-5.315 0-7.945 4.533-7.945 11.638 0 7.162 2.63 11.303 8.001 11.303 6.323 0 8.617-3.469 8.617-10.463m-21.71-.95c0-10.297 4.924-15.612 12.365-15.612 4.645 0 7.443 1.958 9.288 4.42h.336c-.11-.952-.336-3.3-.336-4.42V168.32l4.925-1.902v42.525h-3.972l-.728-4.028h-.225c-1.79 2.573-4.643 4.588-9.343 4.588-7.443 0-12.31-5.204-12.31-15.499M348.542 194.451c-7.498.28-9.904 2.406-9.904 6.211 0 3.357 2.238 4.868 5.484 4.868 5.035 0 8.84-2.742 8.84-8.56v-2.687l-4.42.168zm9.288-5.93v20.422h-3.581l-.951-4.253h-.224c-2.63 3.302-5.036 4.813-10.071 4.813-5.428 0-9.457-2.798-9.457-8.897 0-5.987 4.589-9.289 14.381-9.568l5.092-.168v-1.79c0-4.98-2.294-6.659-6.211-6.659-3.134 0-5.988 1.12-8.45 2.294l-1.51-3.693c2.63-1.399 6.322-2.574 10.239-2.574 7.274 0 10.743 3.078 10.743 10.072zM366.556 178.952l6.49 17.065c1.12 3.022 2.072 5.708 2.519 8.17h.223c.449-1.846 1.51-5.148 2.575-8.225l6.098-17.01h5.317l-12.926 34.132c-2.126 5.651-4.028 7.722-8.001 9.288l-1.511-3.973c2.294-1.062 3.245-2.126 4.476-5.37l1.567-3.973-12.086-30.104h5.259z"/>
        </g>
        <g>
            <path d="M236.49 140.298c0 .54.62.543.732 0 .824-3.997 2.076-6.662 4.033-9.25l-4.401.004a.363.363 0 0 0-.364.363v8.883zm32.32-55.485c-.181-.584-.687-.623-.682-.011.05 5.779-1.612 10.745-12.16 21.294l-8.344 8.337c-3.797 3.797-7.211 7.263-9.23 10.729h8.24l.975-.975 11.97-11.983c9.969-9.97 11.359-20.513 9.23-27.391zm-11.187 35.25l-10 10.006c-6.051 6.053-11.133 11.268-11.133 16.97l.006 1.589c0 .43.536.499.7.048 1.87-5.106 8.113-10.556 19.565-8.624 0 0 49.89 8.62 50.31 8.658.487.043.728-.437.414-.81-.19-.225-23.22-23.255-23.22-23.255l-26.642-4.582zm-36.093 10.986a.364.364 0 0 1-.364-.364v-5.162c0-.202.163-.364.364-.364l8.732.002a.364.364 0 0 0 .364-.364c-.023-4.637-3.518-7.787-17.523-5.35l-30.24 5.198s-23.032 23.03-23.221 23.255c-.314.373-.073.853.414.81.42-.037 50.31-8.658 50.31-8.658 11.453-1.932 17.696 3.518 19.564 8.624.165.45.702.383.702-.048v-17.216c0-.2-.162-.363-.363-.363h-8.74zm-13.94-72.152c-9.968 9.968-11.358 20.514-9.23 27.392.18.584.687.623.682.01-.05-5.778 1.613-10.744 12.16-21.293l22.74-22.733c6.053-6.053 11.135-11.268 11.135-16.971v-8.896c0-.541-.62-.543-.732 0-1.496 7.26-4.4 10.124-10.387 16.112L207.59 58.897zM245.1 40.924v-8.956c0-.541-.62-.543-.732 0-1.496 7.26-4.392 10.169-10.38 16.157l-23.883 23.862c-11.59 11.59-13.596 22.808-7.701 30.016.393.482.816.193.56-.387-3.898-8.818 5.448-18.168 9.898-22.617l21.104-21.104c6.052-6.053 11.134-11.268 11.134-16.971zm-34.34 46.045c-11.591 11.59-6.261 22.785.5 25.867.593.27.829-.211.375-.603-5.421-4.698-3.775-12.598 3.043-19.415l19.264-19.265c6.052-6.052 11.133-11.267 11.133-16.97v-8.895c0-.541-.62-.543-.731 0-1.496 7.258-4.394 10.11-10.381 16.098l-23.203 23.183zm25.71 28.81v8.957c0 .54.62.543.73 0 1.498-7.258 4.394-10.168 10.38-16.156l9.488-9.467c11.59-11.59 13.595-22.806 7.7-30.015-.393-.481-.816-.193-.56.387 3.898 8.818-5.447 18.167-9.897 22.618l-6.707 6.708c-6.053 6.05-11.134 11.266-11.134 16.969zm11.137-22.861c-5.988 5.987-8.886 8.84-10.381 16.099-.112.544-.732.542-.732 0v-8.895c0-5.703 5.08-10.918 11.134-16.97l4.867-4.868c6.818-6.818 8.464-14.717 3.042-19.415-.453-.392-.217-.874.376-.603 6.76 3.08 12.09 14.275.499 25.867l-8.805 8.785zM303.808 131.712c.525 0 .839-.293.839-.718 0-.474-.263-.677-.85-.677h-.494v1.395h.505zm-1.272-2.041h1.293c1.1 0 1.595.435 1.595 1.304 0 .635-.384.989-.788 1.151l1.172 1.96h-.868l-1.011-1.748h-.626v1.748h-.767v-4.415zm4.515 2.202c0-1.747-1.304-3.172-3.132-3.172s-3.141 1.324-3.141 3.172c0 1.748 1.313 3.172 3.14 3.172 1.729 0 3.133-1.323 3.133-3.172zm-6.84 0c0-2.151 1.557-3.707 3.708-3.707 2.05 0 3.707 1.556 3.707 3.707 0 2.152-1.555 3.707-3.707 3.707-2.151 0-3.707-1.555-3.707-3.707z"/>
        </g>
    </g>
</svg>
